# xmcd
#
# Track frame offsets:
#	150
#	18554
#	34980
#	53046
#	69003
#	93865
#	111072
#	128367
#	146181
#	167051
#	182629
#	201516
#	216366
#	233305
#	247954
#	264575
#	284684
#	301956
#	318387
#	340028
#
# Disc length: 4780
#
# Revision: 2
# Processed by: cddbd v1.5.2PL0 Copyright (c) Steve Scherf et al.
# Submitted via: kJams 2 (development) 2.0patch8
#
DISCID=1b12aa14
DTITLE=Various Artist - Zoom Hip–Hop Pop Box CD5
DYEAR=2016
DGENRE=Karaoke
TTITLE0=Pitbull - International Love (Ft. Chris Brown)
TTITLE1=Pitbull - Timber (Ft. Kesha)
TTITLE2=Professor Green - Read All About It (Ft. Emili Sande)
TTITLE3=Professor Green - Just Be Good To Green (Ft. Lily Allen)
TTITLE4=Puff Daddy - I'll Be Missing You (Ft. Faith Evans and 112)
TTITLE5=Redfoo - Let's Get Riidiculous
TTITLE6=Rihanna - Bitch Better Have My Money
TTITLE7=Rihanna - Rude Boy
TTITLE8=Rihanna - What's My Name (Ft. Drake)
TTITLE9=Rihanna - Four Five Seconds (Ft. Kanye West and Paul McCartney) [Duet]
TTITLE10=Rita Ora - R.I.P. (Ft. Tinie Tempah)
TTITLE11=Rizzle Kicks - Down With The Trumpets
TTITLE12=Rizzle Kicks - Lost Generation
TTITLE13=Run DMC - It's Tricky
TTITLE14=Run DMC - Walk This Way (Ft. Aerosmith)
TTITLE15=Run DMC - It's Like That (Ft. Jason Nevins)
TTITLE16=Salt N Pepa - Let's Talk About Sex
TTITLE17=Salt N Pepa - Push It
TTITLE18=Salt N Pepa - Whatta Man (Ft. En Vogue)
TTITLE19=Vanilla Ice - Ice Ice Baby
EXTD=
EXTT0=
EXTT1=
EXTT2=
EXTT3=
EXTT4=
EXTT5=
EXTT6=
EXTT7=
EXTT8=
EXTT9=
EXTT10=
EXTT11=
EXTT12=
EXTT13=
EXTT14=
EXTT15=
EXTT16=
EXTT17=
EXTT18=
EXTT19=
PLAYORDER=
